<svg width="430" height="430" viewBox="0 0 430 430" fill="none" xmlns="http://www.w3.org/2000/svg">
<path d="M215 54C218.314 54 221 56.6863 221 60V79H240C243.314 79 246 81.6863 246 85C246 88.3137 243.314 91 240 91H221V110C221 113.314 218.314 116 215 116C211.686 116 209 113.314 209 110V91H190C186.686 91 184 88.3137 184 85C184 81.6863 186.686 79 190 79H209V60C209 56.6863 211.686 54 215 54Z" fill="url(#paint0_linear_2035_4566)"/>
<path fill-rule="evenodd" clip-rule="evenodd" d="M109 50C109 35.6406 120.641 24 135 24H295C309.359 24 321 35.6406 321 50V120C321 134.359 309.359 146 295 146H241.544L219.992 178.328C218.88 179.997 217.006 181 215 181C212.994 181 211.12 179.997 210.008 178.328L188.456 146H135C120.641 146 109 134.359 109 120V50ZM135 36C127.268 36 121 42.268 121 50V120C121 127.732 127.268 134 135 134H191.667C193.673 134 195.546 135.003 196.659 136.672L215 164.183L233.341 136.672C234.454 135.003 236.327 134 238.333 134H295C302.732 134 309 127.732 309 120V50C309 42.268 302.732 36 295 36H135Z" fill="url(#paint1_linear_2035_4566)"/>
<path fill-rule="evenodd" clip-rule="evenodd" d="M164 250C164 221.833 186.833 199 215 199C243.167 199 266 221.833 266 250C266 278.167 243.167 301 215 301C186.833 301 164 278.167 164 250ZM215 211C193.461 211 176 228.461 176 250C176 271.539 193.461 289 215 289C236.539 289 254 271.539 254 250C254 228.461 236.539 211 215 211Z" fill="url(#paint2_linear_2035_4566)"/>
<path fill-rule="evenodd" clip-rule="evenodd" d="M50 386H119V400C119 403.314 121.686 406 125 406H305C308.314 406 311 403.314 311 400V386H380C383.314 386 386 383.314 386 380V365C386 336.833 363.167 314 335 314H295C287.34 314 280.074 315.689 273.555 318.714C266.308 315.678 258.35 314 250 314H180C171.65 314 163.692 315.678 156.445 318.714C149.926 315.689 142.66 314 135 314H95C66.8335 314 44 336.833 44 365V380C44 383.314 46.6863 386 50 386ZM374 374H310.992C310.683 354.781 301.486 337.722 287.332 326.754C289.811 326.259 292.375 326 295 326H335C356.539 326 374 343.461 374 365V374ZM135 326C137.625 326 140.189 326.259 142.668 326.754C128.514 337.722 119.317 354.781 119.008 374H56V365C56 343.461 73.4609 326 95 326H135ZM180 326C152.938 326 131 347.938 131 375V394H299V375C299 347.938 277.062 326 250 326H180Z" fill="url(#paint3_linear_2035_4566)"/>
<path fill-rule="evenodd" clip-rule="evenodd" d="M115 229C95.1177 229 79 245.118 79 265C79 284.882 95.1177 301 115 301C134.882 301 151 284.882 151 265C151 245.118 134.882 229 115 229ZM91 265C91 251.745 101.745 241 115 241C128.255 241 139 251.745 139 265C139 278.255 128.255 289 115 289C101.745 289 91 278.255 91 265Z" fill="url(#paint4_linear_2035_4566)"/>
<path fill-rule="evenodd" clip-rule="evenodd" d="M279 265C279 245.118 295.118 229 315 229C334.882 229 351 245.118 351 265C351 284.882 334.882 301 315 301C295.118 301 279 284.882 279 265ZM315 241C301.745 241 291 251.745 291 265C291 278.255 301.745 289 315 289C328.255 289 339 278.255 339 265C339 251.745 328.255 241 315 241Z" fill="url(#paint5_linear_2035_4566)"/>
<defs>
<linearGradient id="paint0_linear_2035_4566" x1="155.876" y1="108.833" x2="361.174" y2="315.862" gradientUnits="userSpaceOnUse">
<stop stop-color="#CA5EEE"/>
<stop offset="1" stop-color="#4BE1EC"/>
</linearGradient>
<linearGradient id="paint1_linear_2035_4566" x1="155.876" y1="108.833" x2="361.174" y2="315.862" gradientUnits="userSpaceOnUse">
<stop stop-color="#CA5EEE"/>
<stop offset="1" stop-color="#4BE1EC"/>
</linearGradient>
<linearGradient id="paint2_linear_2035_4566" x1="155.876" y1="108.833" x2="361.174" y2="315.862" gradientUnits="userSpaceOnUse">
<stop stop-color="#CA5EEE"/>
<stop offset="1" stop-color="#4BE1EC"/>
</linearGradient>
<linearGradient id="paint3_linear_2035_4566" x1="155.876" y1="108.833" x2="361.174" y2="315.862" gradientUnits="userSpaceOnUse">
<stop stop-color="#CA5EEE"/>
<stop offset="1" stop-color="#4BE1EC"/>
</linearGradient>
<linearGradient id="paint4_linear_2035_4566" x1="155.876" y1="108.833" x2="361.174" y2="315.862" gradientUnits="userSpaceOnUse">
<stop stop-color="#CA5EEE"/>
<stop offset="1" stop-color="#4BE1EC"/>
</linearGradient>
<linearGradient id="paint5_linear_2035_4566" x1="155.876" y1="108.833" x2="361.174" y2="315.862" gradientUnits="userSpaceOnUse">
<stop stop-color="#CA5EEE"/>
<stop offset="1" stop-color="#4BE1EC"/>
</linearGradient>
</defs>
</svg>
