<svg width="430" height="430" viewBox="0 0 430 430" fill="none" xmlns="http://www.w3.org/2000/svg">
<path d="M387.1 215.1C387.1 162.9 363.7 116.1 326.9 84.5001C326.5 84.1001 326 83.7001 325.5 83.4001C295.7 58.4001 257.3 43.2001 215.5 43.1001C215.3 43.1001 215.2 43.1001 215 43.1001C214.9 43.1001 214.7 43.1001 214.6 43.1001C172.7 43.1001 134.4 58.3001 104.5 83.3001C104 83.6001 103.6 84.0001 103.2 84.4001C66.4 116 43 162.8 43 215V215.1V215.2C43 267.4 66.4 314.2 103.2 345.7C103.6 346.1 104 346.5 104.5 346.8C134.4 371.9 173 387.1 215 387.1C257 387.1 295.6 371.9 325.5 346.8C326 346.5 326.5 346.1 326.9 345.7C363.7 314.1 387.1 267.3 387.1 215.1ZM321.4 334.5C314.8 331.2 307.9 328.3 300.7 325.7C316.7 296.3 325.8 259.8 326.7 221H375C373.3 266.1 353 306.4 321.4 334.5ZM149.5 332C168.3 326.9 188.7 324 209.5 323.5C209.4 346.4 209.3 362.6 209.2 374.8C186.9 372.5 166 357.5 149.5 332ZM221.1 374.8C221.2 362.7 221.3 346.4 221.4 323.5C242.7 324 263.5 327.1 282.7 332.5C266.3 356.9 244.8 372.5 221.1 374.8ZM221.5 311.5C221.6 288.2 221.6 258.7 221.6 221H314.7C313.8 259.7 304.3 294.9 289.2 321.9C268.1 315.7 245.1 312.1 221.5 311.5ZM221.6 209.1C221.6 167.7 221.5 140.8 221.4 118.6C245 118 268.1 114.5 289.2 108.2C304.3 135.2 313.8 170.4 314.7 209.1H221.6ZM221.4 106.6C221.3 96.9001 221.3 87.9001 221.2 78.5001C221.2 71.2001 221.1 63.6001 221.1 55.3001C244.8 57.6001 266.3 73.2001 282.7 97.6001C263.6 103 242.7 106.1 221.4 106.6ZM209.1 55.3001C209.2 63.6001 209.2 71.3001 209.2 78.6001C209.3 87.9001 209.3 97.0001 209.4 106.6C188.6 106.2 168.2 103.2 149.5 98.1001C166 72.5001 186.9 57.6001 209.1 55.3001ZM209.4 118.6C209.5 140.8 209.6 167.7 209.6 209.1H118.7C119.5 171.8 128.1 136.7 143.1 108.8C163.9 114.8 186.4 118.1 209.4 118.6ZM209.6 221.1C209.6 258.8 209.5 288.2 209.5 311.6C186.4 312.1 163.9 315.4 143.2 321.4C128.2 293.5 119.6 258.5 118.8 221.2L209.6 221.1ZM137.5 335.6C145.2 348.1 153.9 358.4 163.3 366.5C147.2 361 132.3 353 118.9 342.9C124.9 340.2 131.1 337.8 137.5 335.6ZM294.5 336.3C300.3 338.3 305.8 340.5 311.2 343C298.6 352.5 284.6 360.2 269.5 365.6C278.6 357.8 287 348 294.5 336.3ZM375 209.1H326.7C325.8 170.4 316.8 133.8 300.7 104.4C307.9 101.8 314.8 98.9001 321.4 95.6001C353 123.7 373.3 164 375 209.1ZM311.2 87.2001C305.8 89.6001 300.3 91.9001 294.5 93.9001C287 82.2001 278.5 72.4001 269.5 64.6001C284.6 70.0001 298.6 77.7001 311.2 87.2001ZM137.6 94.5001C131.2 92.3001 124.9 89.9001 119 87.2001C132.3 77.2001 147.3 69.1001 163.4 63.6001C153.9 71.7001 145.2 82.0001 137.6 94.5001ZM108.7 95.6001C115.9 99.2001 123.6 102.3 131.5 105.1C116.2 134.4 107.5 170.6 106.7 209H55.1C56.8 164 77.2 123.7 108.7 95.6001ZM55.1 221.1H106.7C107.5 259.5 116.2 295.8 131.5 325C123.5 327.8 115.9 331 108.7 334.5C77.2 306.4 56.8 266.1 55.1 221.1Z" fill="url(#paint0_linear_2119_2730)"/>
<defs>
<linearGradient id="paint0_linear_2119_2730" x1="93.4614" y1="93.4579" x2="336.648" y2="336.644" gradientUnits="userSpaceOnUse">
<stop stop-color="#CB5EEE"/>
<stop offset="1" stop-color="#4BE1EC"/>
</linearGradient>
</defs>
</svg>
